<svg version="1.2" xmlns="http://www.w3.org/2000/svg" viewBox="0 0 104 29" width="900" height="251">
	<title>cloud-svg</title>
	<style>
		.s0 { fill: #d7e5f5 } 
		.s1 { fill: #d7e5f5;stroke: #d7e5f5;stroke-miterlimit:22.9256;stroke-width: .4 } 
		.s2 { fill: #ffffff } 
	</style>
	<g id="Layer">
		<path id="Layer" class="s0" d="m8.9 16.7h81.7c1.5 0 2.7 1.2 2.7 2.7 0 1.5-1.2 2.7-2.7 2.7h-81.7c-1.5 0-2.7-1.2-2.7-2.7 0-1.5 1.2-2.7 2.7-2.7z"/>
		<path id="Layer" class="s1" d="m8.9 16.7h81.7c1.5 0 2.7 1.2 2.7 2.7q0 0.2-0.1 0.4h-87q0-0.2 0-0.4c0-1.5 1.2-2.7 2.7-2.7z"/>
		<path id="Layer" class="s0" d="m52.9 17.1v0.1c-0.3-2.9-2.8-5.1-5.8-5.1q-0.7 0-1.4 0.1c-1.1-3.7-4.6-6.5-8.7-6.5-4.1 0-7.6 2.8-8.7 6.6q-0.8-0.3-1.8-0.2c-2.3 0-4.3 1.3-5.2 3.3-0.7-0.6-1.5-0.9-2.5-0.9-1.7 0-3.2 1.2-3.7 2.8h37.8z"/>
		<path id="Layer" class="s2" d="m52.7 22c-0.4-2.6-2.6-4.6-5.3-4.6q-0.6 0-1.2 0.2c-1-3.5-4.1-5.9-7.8-5.9-3.7 0-6.8 2.5-7.8 5.9q-0.8-0.2-1.6-0.2c-2.1 0-3.9 1.2-4.7 3-0.6-0.5-1.4-0.8-2.2-0.8-1.6 0-2.9 1-3.3 2.5h33.8z"/>
		<path id="Layer" class="s0" d="m64.7 17.3c0.2-1.6 1.5-2.7 3-2.7q0.4 0 0.7 0c0.6-1.9 2.4-3.4 4.5-3.4 2.2 0 4 1.5 4.6 3.5q0.4-0.2 0.9-0.2c1.2 0 2.3 0.7 2.8 1.8q0.5-0.4 1.2-0.4c0.9 0 1.7 0.5 1.9 1.4h-19.6z"/>
		<path id="Layer" class="s0" d="m64.7 17.3c0.2-1.6 1.5-2.7 3-2.7q0.4 0 0.7 0c0.6-1.9 2.4-3.4 4.5-3.4 2.2 0 4 1.5 4.6 3.5q0.4-0.2 0.9-0.2c1.2 0 2.3 0.7 2.8 1.8q0.5-0.4 1.2-0.4c0.9 0 1.7 0.5 1.9 1.4h-19.6z"/>
	</g>
</svg>